Coordinates
version=1
nRows=20
nColumns=63
inDegrees=yes

Units are S.I. units (second, meters, Newtons, ...)
If the header above contains a line with 'inDegrees', this indicates whether rotational values are in degrees (yes) or radians (no).

endheader
time	pelvis_tilt	pelvis_list	pelvis_rotation	pelvis_tx	pelvis_ty	pelvis_tz	hip_flexion_r	hip_adduction_r	hip_rotation_r	knee_angle_r	knee_angle_r_beta	ankle_angle_r	subtalar_angle_r	mtp_angle_r	hip_flexion_l	hip_adduction_l	hip_rotation_l	knee_angle_l	knee_angle_l_beta	ankle_angle_l	subtalar_angle_l	mtp_angle_l	L5_S1_Flex_Ext	L5_S1_Lat_Bending	L5_S1_axial_rotation	L4_L5_Flex_Ext	L4_L5_Lat_Bending	L4_L5_axial_rotation	L3_L4_Flex_Ext	L3_L4_Lat_Bending	L3_L4_axial_rotation	L2_L3_Flex_Ext	L2_L3_Lat_Bending	L2_L3_axial_rotation	L1_L2_Flex_Ext	L1_L2_Lat_Bending	L1_L2_axial_rotation	L1_T12_Flex_Ext	L1_T12_Lat_Bending	L1_T12_axial_rotation	Abs_r3	Abs_r2	Abs_r1	Abs_t1	Abs_t2	neck_flexion	neck_bending	neck_rotation	arm_flex_r	arm_add_r	arm_rot_r	elbow_flex_r	pro_sup_r	wrist_flex_r	wrist_dev_r	arm_flex_l	arm_add_l	arm_rot_l	elbow_flex_l	pro_sup_l	wrist_flex_l	wrist_dev_l
2.687500	4.643622	-3.124248	86.802336	0.473708	0.647496	0.626846	-3.910485	2.189704	6.118863	2.310800	0.040331	15.700153	-9.093123	0.000000	-4.004653	-2.541687	1.544660	1.304967	0.022776	20.647097	-1.574856	0.000000	0.008515	0.776668	0.692680	0.015814	1.032968	0.735973	0.013990	1.888390	0.735973	0.009732	1.888390	0.606095	0.007907	1.583781	0.562803	0.004866	1.203058	0.519510	0.060823	8.785819	3.852480	0.000000	0.000000	18.146954	-6.042475	21.491249	-2.568952	-24.310811	-346.926808	37.427302	75.908861	8.696413	1.602443	-32.810250	-18.508418	-23.171451	119.337726	82.423562	-4.770802	11.571246
2.708333	5.087310	-3.072797	87.226099	0.472892	0.646679	0.626934	-4.175050	2.681996	6.154908	1.862507	0.032507	15.343960	-9.738535	0.000000	-4.089951	-3.010183	2.252447	1.151997	0.020106	20.888730	-1.977572	0.000000	0.002034	0.816244	0.702313	0.003778	1.085604	0.746208	0.003342	1.984615	0.746208	0.002325	1.984615	0.614524	0.001889	1.664484	0.570630	0.001162	1.264361	0.526735	0.014531	9.233511	3.906056	0.000000	0.000000	18.804018	-6.189055	20.386821	-2.658420	-24.229007	-349.732289	37.882570	77.195448	6.442734	3.015554	-30.675727	-19.208625	-20.152470	112.626632	83.949275	-4.649166	10.922969
2.729167	5.544316	-3.057269	87.705187	0.471981	0.645726	0.627129	-4.375937	3.189768	6.064206	1.454486	0.025386	15.010406	-10.337221	0.000000	-4.117461	-3.495887	3.112815	1.008950	0.017609	21.112412	-2.520302	0.000000	-0.002273	0.856243	0.707651	-0.004221	1.138804	0.751879	-0.003734	2.081870	0.751879	-0.002598	2.081870	0.619195	-0.002111	1.746051	0.574966	-0.001299	1.326321	0.530738	-0.016235	9.685996	3.935742	0.000000	0.000000	19.398990	-6.394545	19.187327	-2.486958	-24.071221	-351.945822	38.155406	78.637520	3.742984	4.464685	-27.797802	-20.002139	-16.145595	105.329266	85.532657	-4.703998	10.224873
2.750000	5.999300	-3.074726	88.247229	0.470986	0.644664	0.627427	-4.516058	3.700834	5.915083	1.092340	0.019065	14.701532	-10.971757	0.000000	-4.082537	-3.985694	4.113352	0.883903	0.015427	21.331148	-3.157114	0.000000	-0.004967	0.893918	0.699753	-0.009224	1.188911	0.743487	-0.008160	2.173473	0.743487	-0.005676	2.173473	0.612283	-0.004612	1.822878	0.568549	-0.002838	1.384680	0.524814	-0.035477	10.112183	3.891814	0.000000	0.000000	19.926817	-6.609675	17.923958	-2.026133	-23.787183	-353.637285	38.189240	80.545986	0.950307	5.922275	-24.299713	-20.745298	-11.241356	97.614815	87.208786	-4.914766	9.324779
2.770833	6.444903	-3.133626	88.816677	0.469983	0.643512	0.627831	-4.576853	4.205129	5.665183	0.787856	0.013751	14.455644	-11.514271	0.000000	-3.980866	-4.470986	5.185267	0.770322	0.013445	21.562806	-3.820278	0.000000	-0.005714	0.927364	0.679258	-0.010612	1.233394	0.721711	-0.009388	2.254793	0.721711	-0.006531	2.254793	0.594350	-0.005306	1.891081	0.551897	-0.003265	1.436487	0.509443	-0.040817	10.490529	3.777826	0.000000	0.000000	20.462972	-6.849191	16.574378	-1.186373	-23.416036	-354.250641	37.928433	82.407064	-1.940137	7.220341	-20.297373	-21.309348	-5.412580	89.681707	88.881739	-5.505526	8.101113
2.791667	6.847068	-3.239492	89.403711	0.469012	0.642271	0.628331	-4.544025	4.665886	5.301307	0.559951	0.009773	14.333087	-11.914912	0.000000	-3.802823	-4.914922	6.314875	0.682402	0.011910	21.790782	-4.508013	0.000000	-0.004826	0.950464	0.641502	-0.008962	1.264117	0.681596	-0.007929	2.310957	0.681596	-0.005516	2.310957	0.561314	-0.004481	1.938185	0.521221	-0.002758	1.472268	0.481127	-0.034472	10.751835	3.567843	0.000000	0.000000	21.023659	-6.993104	15.120248	-0.006723	-22.880288	-354.022888	37.366784	84.694132	-4.662736	8.299387	-16.036578	-21.518261	0.827632	81.820004	90.677991	-6.281316	6.722038
2.812500	7.198257	-3.406002	89.973898	0.468210	0.640938	0.628902	-4.410192	5.080397	4.954245	0.387511	0.006763	14.326940	-12.255802	0.000000	-3.547679	-5.312544	7.401690	0.605736	0.010572	22.021549	-5.118874	0.000000	-0.000725	0.962183	0.594402	-0.001347	1.279704	0.631552	-0.001192	2.339452	0.631552	-0.000829	2.339452	0.520102	-0.000674	1.962084	0.482952	-0.000414	1.490422	0.445802	-0.005181	10.884410	3.305886	0.000000	0.000000	21.675703	-7.060104	13.632786	1.408704	-22.149150	-352.981604	36.631824	86.237776	-6.999004	9.283252	-11.649913	-21.402273	7.579495	74.235880	91.022208	-7.080370	5.114331
2.833333	7.474326	-3.651191	90.481366	0.467666	0.639520	0.629546	-4.145973	5.420850	4.585823	0.284862	0.004972	14.501227	-12.411653	0.000000	-3.201657	-5.635843	8.451469	0.542126	0.009462	22.228153	-5.742384	0.000000	0.009976	0.958837	0.545669	0.018526	1.275253	0.579773	0.016390	2.331317	0.579773	0.011402	2.331317	0.477460	0.009264	1.955261	0.443356	0.005700	1.485239	0.409252	0.071258	10.846557	3.034847	0.000000	0.000000	22.397698	-6.997603	12.114581	2.974638	-21.185255	-351.276317	35.742767	87.475657	-8.842852	9.894456	-7.330435	-20.894683	14.498781	67.176217	90.171930	-7.744672	3.590475
2.854167	7.658460	-3.979833	90.892793	0.467446	0.638047	0.630280	-3.746108	5.668350	4.261773	0.247651	0.004322	14.842471	-12.435546	0.000000	-2.763361	-5.866394	9.340206	0.492263	0.008592	22.424805	-6.259307	0.000000	0.028650	0.938702	0.499909	0.053206	1.248474	0.531153	0.047069	2.282360	0.531153	0.032744	2.282360	0.437420	0.026604	1.914201	0.406176	0.016371	1.454049	0.374931	0.204644	10.618785	2.780342	0.000000	0.000000	23.175601	-6.800440	10.592070	4.674442	-20.002503	-348.579474	34.811645	87.763969	-10.210201	10.025027	-3.239940	-20.019822	21.300170	60.817136	88.146071	-8.165799	2.356549
2.875000	7.747817	-4.398099	91.173868	0.467571	0.636551	0.631080	-3.218941	5.819223	3.974374	0.252800	0.004412	15.328321	-12.283862	0.000000	-2.235809	-6.000112	10.082912	0.454835	0.007938	22.590425	-6.760995	0.000000	0.057644	0.902755	0.470576	0.107050	1.200664	0.499987	0.094703	2.194958	0.499987	0.065881	2.194958	0.411754	0.053528	1.840897	0.382343	0.032938	1.398367	0.352932	0.411742	10.212142	2.617202	0.000000	0.000000	23.981114	-6.525563	9.051185	6.339213	-18.611243	-345.297068	33.952256	87.507384	-10.958414	9.757504	0.531134	-18.796845	27.922794	55.241431	85.011940	-8.418487	1.440873
2.895833	7.741639	-4.893451	91.323189	0.467988	0.635095	0.631931	-2.596589	5.871083	3.759776	0.270543	0.004722	15.896078	-12.012019	0.000000	-1.634719	-6.036803	10.598865	0.431047	0.007523	22.729457	-7.153852	0.000000	0.096082	0.853389	0.450244	0.178434	1.135007	0.478384	0.157853	2.074929	0.478384	0.109812	2.074929	0.393963	0.089222	1.740230	0.365823	0.054901	1.321899	0.337683	0.686306	9.653702	2.504122	0.000000	0.000000	24.768687	-6.157255	7.608009	8.001336	-17.050574	-341.210383	33.218108	86.305865	-11.065485	9.009186	3.784059	-17.255773	33.770779	50.521628	81.785824	-8.375179	0.970520
2.916667	7.649460	-5.441611	91.334234	0.468673	0.633749	0.632886	-1.910612	5.836672	3.634277	0.288634	0.005038	16.488031	-11.666060	0.000000	-0.984046	-5.988972	10.855470	0.418859	0.007310	22.832934	-7.413551	0.000000	0.140758	0.793763	0.439564	0.261401	1.055704	0.467036	0.231251	1.929955	0.467036	0.160872	1.929955	0.384618	0.130708	1.618641	0.357145	0.080429	1.229538	0.329673	1.005419	8.979202	2.444721	0.000000	0.000000	25.494218	-5.749384	6.279989	9.638377	-15.382582	-336.442262	32.672255	84.364335	-10.505811	7.937015	6.478349	-15.499676	38.695599	46.657147	79.004870	-7.936033	0.993003
2.937500	7.478399	-6.018052	91.185116	0.469567	0.632569	0.633987	-1.182848	5.721256	3.675615	0.312182	0.005449	17.028470	-11.347742	0.000000	-0.312533	-5.862027	10.848554	0.412044	0.007192	22.910678	-7.553542	0.000000	0.189173	0.726808	0.449410	0.351313	0.966654	0.477498	0.310792	1.767161	0.477498	0.216206	1.767161	0.393234	0.175666	1.482107	0.365145	0.108093	1.125825	0.337057	1.351244	8.221796	2.499482	0.000000	0.000000	26.125085	-5.327077	5.070543	11.213886	-13.668320	-331.226191	32.365924	81.908027	-9.175529	6.822247	8.756023	-13.586020	43.264771	43.530437	76.722269	-7.284546	1.343882
2.958333	7.252675	-6.592417	90.880842	0.470612	0.631594	0.635262	-0.442177	5.545255	3.828665	0.350213	0.006112	17.508336	-11.004696	0.000000	0.352540	-5.678328	10.536344	0.415314	0.007249	22.984432	-7.516262	0.000000	0.237369	0.656022	0.470684	0.440819	0.872510	0.500102	0.389974	1.595053	0.500102	0.271290	1.595053	0.411849	0.220421	1.337761	0.382431	0.135633	1.016179	0.353013	1.695506	7.421058	2.617803	0.000000	0.000000	26.656095	-4.873653	4.016904	12.845175	-12.084184	-325.070104	32.365503	78.023691	-7.414483	5.681775	10.662975	-11.565500	47.759286	41.028877	74.976638	-6.566981	1.826871
2.979167	6.988669	-7.157550	90.434228	0.471740	0.630793	0.636642	0.295530	5.321828	4.089179	0.400841	0.006996	17.915384	-10.643029	0.000000	1.000838	-5.451833	9.921864	0.429738	0.007500	23.071296	-7.286339	0.000000	0.285108	0.584163	0.502429	0.529474	0.776937	0.533831	0.468404	1.420335	0.533831	0.325850	1.420335	0.439625	0.264751	1.191226	0.408224	0.162911	0.904869	0.376822	2.036498	6.608172	2.794360	0.000000	0.000000	27.091268	-4.393411	3.136547	14.404501	-10.780274	-318.129245	32.773361	72.916431	-5.708563	4.884481	12.199294	-9.516935	52.183525	39.064465	73.800878	-5.912768	2.331918
3.000000	6.733379	-7.756083	89.854425	0.472799	0.629970	0.637916	1.052539	5.095005	4.480205	0.454396	0.007931	18.259570	-10.289663	0.000000	1.645416	-5.221994	9.276241	0.421111	0.007350	23.166879	-7.204536	0.000000	0.338571	0.521482	0.579900	0.628761	0.693571	0.616144	0.556239	1.267931	0.616144	0.386953	1.267931	0.507413	0.314397	1.063405	0.471169	0.193460	0.807775	0.434925	2.418380	5.899105	3.225231	0.000000	0.000000	27.448502	-4.044708	2.431731	14.813967	-10.081821	-302.779864	35.258105	62.798988	-5.420670	6.870419	13.397852	-7.452342	56.529635	37.557537	73.146620	-5.394654	2.898428
3.020833	6.404090	-8.305903	89.176103	0.474004	0.629390	0.639334	1.773787	4.794090	5.001576	0.517878	0.009039	18.516546	-10.013239	0.000000	2.255620	-4.927135	8.207795	0.442617	0.007725	23.276036	-6.696058	0.000000	0.386358	0.454353	0.639639	0.717505	0.604290	0.679616	0.634747	1.104715	0.679616	0.441568	1.104715	0.559684	0.358772	0.926517	0.519706	0.220765	0.703793	0.479729	2.759715	5.139736	3.557478	0.000000	0.000000	27.731128	-3.620157	2.080588	15.326327	-8.956119	-293.498371	36.679888	54.201572	-5.888325	8.355792	14.175938	-5.695424	60.147713	36.595858	72.948034	-4.918963	3.774687
3.041667	6.040786	-8.802384	88.460156	0.475251	0.629023	0.640844	2.446768	4.459804	5.580333	0.586341	0.010234	18.684824	-9.799791	0.000000	2.831990	-4.608003	6.798298	0.502493	0.008770	23.425401	-5.784088	0.000000	0.427757	0.388976	0.677372	0.794387	0.517338	0.719708	0.702762	0.945756	0.719708	0.488883	0.945756	0.592701	0.397215	0.793199	0.550365	0.244420	0.602523	0.508029	3.055425	4.400171	3.767342	0.000000	0.000000	27.960244	-3.130558	2.214065	15.833155	-7.517865	-290.245021	37.167312	47.465583	-7.183827	9.580609	14.602302	-4.314522	62.977615	36.121084	73.176335	-4.411208	4.991571
3.062500	5.649934	-9.237108	87.698720	0.476529	0.628852	0.642432	3.066552	4.100810	6.248907	0.658054	0.011485	18.756009	-9.678916	0.000000	3.357436	-4.269535	5.230426	0.587927	0.010261	23.571227	-4.730194	0.000000	0.462342	0.324573	0.710962	0.858616	0.431682	0.755397	0.759582	0.789166	0.755397	0.528411	0.789166	0.622092	0.429331	0.661869	0.577657	0.264182	0.502763	0.533221	3.302466	3.671632	3.954157	0.000000	0.000000	28.145418	-2.684797	2.535272	16.255206	-5.838623	-292.339470	36.836669	41.954451	-9.022550	10.502873	14.817890	-3.317419	65.147881	35.959040	73.794865	-3.767733	6.472390
3.083333	5.251708	-9.606037	86.910838	0.477786	0.628846	0.644086	3.631102	3.737600	6.940063	0.733678	0.012805	18.747533	-9.565500	0.000000	3.826296	-3.932202	3.529811	0.694976	0.012130	23.716141	-3.545073	0.000000	0.489418	0.262828	0.746833	0.908898	0.349561	0.793510	0.804064	0.639039	0.793510	0.559356	0.639039	0.653479	0.454473	0.535958	0.606802	0.279653	0.407120	0.560125	3.495862	2.973158	4.153662	0.000000	0.000000	28.290266	-2.318902	2.912718	16.568790	-4.002469	-299.095388	35.780665	37.513860	-11.355769	11.192684	14.895967	-2.674138	66.713317	35.974064	74.846346	-2.900465	8.106168
